<mxfile host="www.draw.io" modified="2020-01-13T12:54:19.554Z" agent="Mozilla/5.0 (Windows NT 10.0; Win64; x64) AppleWebKit/537.36 (KHTML, like Gecko) Chrome/79.0.3945.117 Safari/537.36" etag="NoVfyTUVfW_Gmmt8igh4" version="12.5.1" type="github">
  <diagram id="Wx8GK405Yj2OqTjKrMqW" name="Page-1">
    <mxGraphModel dx="1408" dy="868" grid="1" gridSize="10" guides="1" tooltips="1" connect="1" arrows="1" fold="1" page="1" pageScale="1" pageWidth="827" pageHeight="1169" math="1" shadow="0">
      <root>
        <mxCell id="0"/>
        <mxCell id="1" parent="0"/>
        <mxCell id="rtLLGx0ZlrT6Qw1LvZ3F-5" style="edgeStyle=orthogonalEdgeStyle;rounded=0;orthogonalLoop=1;jettySize=auto;html=1;exitX=1;exitY=0.5;exitDx=0;exitDy=0;entryX=0;entryY=0.5;entryDx=0;entryDy=0;" edge="1" parent="1" source="rtLLGx0ZlrT6Qw1LvZ3F-1">
          <mxGeometry relative="1" as="geometry">
            <mxPoint x="200.33333333333348" y="300.33333333333337" as="targetPoint"/>
          </mxGeometry>
        </mxCell>
        <mxCell id="rtLLGx0ZlrT6Qw1LvZ3F-129" style="edgeStyle=orthogonalEdgeStyle;rounded=0;orthogonalLoop=1;jettySize=auto;html=1;exitX=0.5;exitY=1;exitDx=0;exitDy=0;entryX=0.5;entryY=1;entryDx=0;entryDy=0;startArrow=none;startFill=0;strokeColor=#000000;" edge="1" parent="1" source="rtLLGx0ZlrT6Qw1LvZ3F-1" target="rtLLGx0ZlrT6Qw1LvZ3F-115">
          <mxGeometry relative="1" as="geometry"/>
        </mxCell>
        <mxCell id="rtLLGx0ZlrT6Qw1LvZ3F-1" value="&lt;font style=&quot;font-size: 18px&quot;&gt;Data&lt;/font&gt;" style="rounded=0;whiteSpace=wrap;html=1;fillColor=#e1d5e7;strokeColor=#9673a6;" vertex="1" parent="1">
          <mxGeometry x="60" y="270" width="90" height="60" as="geometry"/>
        </mxCell>
        <mxCell id="rtLLGx0ZlrT6Qw1LvZ3F-31" value="" style="group;fillColor=#FFFFFF;strokeColor=none;" vertex="1" connectable="0" parent="1">
          <mxGeometry x="200" y="200" width="60" height="200" as="geometry"/>
        </mxCell>
        <mxCell id="rtLLGx0ZlrT6Qw1LvZ3F-27" value="" style="shape=cube;whiteSpace=wrap;html=1;boundedLbl=1;backgroundOutline=1;darkOpacity=0.05;darkOpacity2=0.1;fillColor=#FFFFCC;gradientColor=none;" vertex="1" parent="rtLLGx0ZlrT6Qw1LvZ3F-31">
          <mxGeometry width="40" height="200" as="geometry"/>
        </mxCell>
        <mxCell id="rtLLGx0ZlrT6Qw1LvZ3F-30" value="&lt;font face=&quot;Verdana&quot; style=&quot;font-size: 15px&quot;&gt;CONV&lt;/font&gt;" style="text;html=1;align=center;verticalAlign=middle;resizable=0;points=[];autosize=1;rotation=90;" vertex="1" parent="rtLLGx0ZlrT6Qw1LvZ3F-31">
          <mxGeometry y="93.33333333333333" width="60" height="20" as="geometry"/>
        </mxCell>
        <mxCell id="rtLLGx0ZlrT6Qw1LvZ3F-32" value="" style="group;fillColor=#FFFFFF;strokeColor=none;" vertex="1" connectable="0" parent="1">
          <mxGeometry x="270" y="220" width="60" height="150" as="geometry"/>
        </mxCell>
        <mxCell id="rtLLGx0ZlrT6Qw1LvZ3F-33" value="" style="shape=cube;whiteSpace=wrap;html=1;boundedLbl=1;backgroundOutline=1;darkOpacity=0.05;darkOpacity2=0.1;fillColor=#CCFFCC;strokeColor=#ae4132;" vertex="1" parent="rtLLGx0ZlrT6Qw1LvZ3F-32">
          <mxGeometry width="40" height="150" as="geometry"/>
        </mxCell>
        <mxCell id="rtLLGx0ZlrT6Qw1LvZ3F-34" value="&lt;font face=&quot;Verdana&quot; style=&quot;font-size: 15px&quot;&gt;CONV&lt;/font&gt;" style="text;html=1;align=center;verticalAlign=middle;resizable=0;points=[];autosize=1;rotation=90;" vertex="1" parent="rtLLGx0ZlrT6Qw1LvZ3F-32">
          <mxGeometry y="70" width="60" height="20" as="geometry"/>
        </mxCell>
        <mxCell id="rtLLGx0ZlrT6Qw1LvZ3F-35" value="" style="group;gradientColor=none;fillColor=#FFFFFF;strokeColor=none;" vertex="1" connectable="0" parent="1">
          <mxGeometry x="340" y="250" width="60" height="100" as="geometry"/>
        </mxCell>
        <mxCell id="rtLLGx0ZlrT6Qw1LvZ3F-36" value="" style="shape=cube;whiteSpace=wrap;html=1;boundedLbl=1;backgroundOutline=1;darkOpacity=0.05;darkOpacity2=0.1;gradientColor=#ffd966;fillColor=#fff2cc;strokeColor=#d6b656;" vertex="1" parent="rtLLGx0ZlrT6Qw1LvZ3F-35">
          <mxGeometry width="40" height="100.00000000000001" as="geometry"/>
        </mxCell>
        <mxCell id="rtLLGx0ZlrT6Qw1LvZ3F-37" value="&lt;font face=&quot;Verdana&quot; style=&quot;font-size: 15px&quot;&gt;CONV&lt;/font&gt;" style="text;html=1;align=center;verticalAlign=middle;resizable=0;points=[];autosize=1;rotation=90;" vertex="1" parent="rtLLGx0ZlrT6Qw1LvZ3F-35">
          <mxGeometry y="46.666666666666664" width="60" height="20" as="geometry"/>
        </mxCell>
        <mxCell id="rtLLGx0ZlrT6Qw1LvZ3F-104" value="" style="endArrow=none;dashed=1;html=1;strokeColor=#000000;exitX=0.5;exitY=0;exitDx=0;exitDy=0;" edge="1" parent="rtLLGx0ZlrT6Qw1LvZ3F-35" source="rtLLGx0ZlrT6Qw1LvZ3F-48">
          <mxGeometry width="50" height="50" relative="1" as="geometry">
            <mxPoint x="50" y="140" as="sourcePoint"/>
            <mxPoint x="100" y="90" as="targetPoint"/>
          </mxGeometry>
        </mxCell>
        <mxCell id="rtLLGx0ZlrT6Qw1LvZ3F-67" style="edgeStyle=none;rounded=0;orthogonalLoop=1;jettySize=auto;html=1;entryX=0.05;entryY=0.553;entryDx=0;entryDy=0;entryPerimeter=0;" edge="1" parent="1" source="rtLLGx0ZlrT6Qw1LvZ3F-30" target="rtLLGx0ZlrT6Qw1LvZ3F-33">
          <mxGeometry relative="1" as="geometry"/>
        </mxCell>
        <mxCell id="rtLLGx0ZlrT6Qw1LvZ3F-98" value="" style="group" vertex="1" connectable="0" parent="1">
          <mxGeometry x="410" y="260" width="90" height="80" as="geometry"/>
        </mxCell>
        <mxCell id="rtLLGx0ZlrT6Qw1LvZ3F-91" value="" style="shape=cube;whiteSpace=wrap;html=1;boundedLbl=1;backgroundOutline=1;darkOpacity=0.05;darkOpacity2=0.1;fillColor=#fff2cc;strokeColor=#d6b656;" vertex="1" parent="rtLLGx0ZlrT6Qw1LvZ3F-98">
          <mxGeometry width="30" height="80" as="geometry"/>
        </mxCell>
        <mxCell id="rtLLGx0ZlrT6Qw1LvZ3F-92" value="" style="shape=cube;whiteSpace=wrap;html=1;boundedLbl=1;backgroundOutline=1;darkOpacity=0.05;darkOpacity2=0.1;fillColor=#f8cecc;strokeColor=#b85450;" vertex="1" parent="rtLLGx0ZlrT6Qw1LvZ3F-98">
          <mxGeometry x="30" width="30" height="80" as="geometry"/>
        </mxCell>
        <mxCell id="rtLLGx0ZlrT6Qw1LvZ3F-93" value="" style="shape=cube;whiteSpace=wrap;html=1;boundedLbl=1;backgroundOutline=1;darkOpacity=0.05;darkOpacity2=0.1;fillColor=#e1d5e7;strokeColor=#9673a6;" vertex="1" parent="rtLLGx0ZlrT6Qw1LvZ3F-98">
          <mxGeometry x="60" width="30" height="80" as="geometry"/>
        </mxCell>
        <mxCell id="rtLLGx0ZlrT6Qw1LvZ3F-43" style="edgeStyle=none;rounded=0;orthogonalLoop=1;jettySize=auto;html=1;exitX=0;exitY=0;exitDx=25;exitDy=100;exitPerimeter=0;entryX=0.5;entryY=0;entryDx=0;entryDy=0;dashed=1;strokeColor=none;" edge="1" parent="1" target="rtLLGx0ZlrT6Qw1LvZ3F-50">
          <mxGeometry relative="1" as="geometry">
            <mxPoint x="495" y="350" as="sourcePoint"/>
          </mxGeometry>
        </mxCell>
        <mxCell id="rtLLGx0ZlrT6Qw1LvZ3F-45" value="" style="group" vertex="1" connectable="0" parent="1">
          <mxGeometry x="360" y="390" width="240" height="30" as="geometry"/>
        </mxCell>
        <mxCell id="rtLLGx0ZlrT6Qw1LvZ3F-46" value="" style="group" vertex="1" connectable="0" parent="rtLLGx0ZlrT6Qw1LvZ3F-45">
          <mxGeometry x="-20" width="260" height="30" as="geometry"/>
        </mxCell>
        <mxCell id="rtLLGx0ZlrT6Qw1LvZ3F-48" value="&lt;font style=&quot;font-size: 18px&quot;&gt;$$\omega_{1}^{c}$$&lt;/font&gt;" style="rounded=0;whiteSpace=wrap;html=1;" vertex="1" parent="rtLLGx0ZlrT6Qw1LvZ3F-46">
          <mxGeometry width="43.33333333333333" height="30" as="geometry"/>
        </mxCell>
        <mxCell id="rtLLGx0ZlrT6Qw1LvZ3F-49" value="&lt;span style=&quot;font-size: 18px ; white-space: normal&quot;&gt;$$\omega_{2}^{c}$$&lt;/span&gt;" style="rounded=0;whiteSpace=wrap;html=1;" vertex="1" parent="rtLLGx0ZlrT6Qw1LvZ3F-46">
          <mxGeometry x="43.33333333333333" width="43.33333333333333" height="30" as="geometry"/>
        </mxCell>
        <mxCell id="rtLLGx0ZlrT6Qw1LvZ3F-50" value="&lt;span style=&quot;font-size: 18px ; white-space: normal&quot;&gt;$$\omega_{c}^{n}$$&lt;/span&gt;" style="rounded=0;whiteSpace=wrap;html=1;" vertex="1" parent="rtLLGx0ZlrT6Qw1LvZ3F-46">
          <mxGeometry x="216.66666666666666" width="43.33333333333333" height="30" as="geometry"/>
        </mxCell>
        <mxCell id="rtLLGx0ZlrT6Qw1LvZ3F-51" value="&lt;span style=&quot;white-space: normal&quot;&gt;&lt;font style=&quot;font-size: 18px&quot;&gt;$$\omega_{n-1}^{c}$$&lt;/font&gt;&lt;/span&gt;" style="rounded=0;whiteSpace=wrap;html=1;" vertex="1" parent="rtLLGx0ZlrT6Qw1LvZ3F-46">
          <mxGeometry x="173.33333333333331" width="43.33333333333333" height="30" as="geometry"/>
        </mxCell>
        <mxCell id="rtLLGx0ZlrT6Qw1LvZ3F-52" value="&lt;span style=&quot;font-size: 18px ; white-space: normal&quot;&gt;$$\omega_{3}^{c}$$&lt;/span&gt;" style="rounded=0;whiteSpace=wrap;html=1;" vertex="1" parent="rtLLGx0ZlrT6Qw1LvZ3F-46">
          <mxGeometry x="86.66666666666666" width="43.33333333333333" height="30" as="geometry"/>
        </mxCell>
        <mxCell id="rtLLGx0ZlrT6Qw1LvZ3F-53" value="&lt;font style=&quot;font-size: 18px&quot;&gt;...&lt;/font&gt;" style="rounded=0;whiteSpace=wrap;html=1;" vertex="1" parent="rtLLGx0ZlrT6Qw1LvZ3F-46">
          <mxGeometry x="130" width="43.33333333333333" height="30" as="geometry"/>
        </mxCell>
        <mxCell id="rtLLGx0ZlrT6Qw1LvZ3F-106" value="" style="endArrow=none;dashed=1;html=1;strokeColor=#000000;exitX=0.5;exitY=0;exitDx=0;exitDy=0;entryX=0;entryY=0;entryDx=25;entryDy=80;entryPerimeter=0;" edge="1" parent="1" source="rtLLGx0ZlrT6Qw1LvZ3F-50" target="rtLLGx0ZlrT6Qw1LvZ3F-93">
          <mxGeometry width="50" height="50" relative="1" as="geometry">
            <mxPoint x="381.66666666666663" y="410" as="sourcePoint"/>
            <mxPoint x="460" y="360" as="targetPoint"/>
          </mxGeometry>
        </mxCell>
        <mxCell id="rtLLGx0ZlrT6Qw1LvZ3F-107" value="" style="endArrow=none;dashed=1;html=1;strokeColor=#000000;exitX=0;exitY=0;exitDx=0;exitDy=0;entryX=0;entryY=0;entryDx=25;entryDy=80;entryPerimeter=0;" edge="1" parent="1" source="rtLLGx0ZlrT6Qw1LvZ3F-53" target="rtLLGx0ZlrT6Qw1LvZ3F-92">
          <mxGeometry width="50" height="50" relative="1" as="geometry">
            <mxPoint x="391.66666666666663" y="420" as="sourcePoint"/>
            <mxPoint x="470" y="370" as="targetPoint"/>
          </mxGeometry>
        </mxCell>
        <mxCell id="rtLLGx0ZlrT6Qw1LvZ3F-118" value="" style="group" vertex="1" connectable="0" parent="1">
          <mxGeometry x="620" y="180" width="30" height="240" as="geometry"/>
        </mxCell>
        <mxCell id="rtLLGx0ZlrT6Qw1LvZ3F-108" value="" style="rounded=0;whiteSpace=wrap;html=1;" vertex="1" parent="rtLLGx0ZlrT6Qw1LvZ3F-118">
          <mxGeometry width="30" height="30" as="geometry"/>
        </mxCell>
        <mxCell id="rtLLGx0ZlrT6Qw1LvZ3F-109" value="" style="rounded=0;whiteSpace=wrap;html=1;" vertex="1" parent="rtLLGx0ZlrT6Qw1LvZ3F-118">
          <mxGeometry y="150" width="30" height="30" as="geometry"/>
        </mxCell>
        <mxCell id="rtLLGx0ZlrT6Qw1LvZ3F-110" value="" style="rounded=0;whiteSpace=wrap;html=1;" vertex="1" parent="rtLLGx0ZlrT6Qw1LvZ3F-118">
          <mxGeometry y="120" width="30" height="30" as="geometry"/>
        </mxCell>
        <mxCell id="rtLLGx0ZlrT6Qw1LvZ3F-111" value="" style="rounded=0;whiteSpace=wrap;html=1;" vertex="1" parent="rtLLGx0ZlrT6Qw1LvZ3F-118">
          <mxGeometry y="90" width="30" height="30" as="geometry"/>
        </mxCell>
        <mxCell id="rtLLGx0ZlrT6Qw1LvZ3F-112" value="" style="rounded=0;whiteSpace=wrap;html=1;" vertex="1" parent="rtLLGx0ZlrT6Qw1LvZ3F-118">
          <mxGeometry y="60" width="30" height="30" as="geometry"/>
        </mxCell>
        <mxCell id="rtLLGx0ZlrT6Qw1LvZ3F-113" value="" style="rounded=0;whiteSpace=wrap;html=1;" vertex="1" parent="rtLLGx0ZlrT6Qw1LvZ3F-118">
          <mxGeometry y="30" width="30" height="30" as="geometry"/>
        </mxCell>
        <mxCell id="rtLLGx0ZlrT6Qw1LvZ3F-115" value="" style="rounded=0;whiteSpace=wrap;html=1;" vertex="1" parent="rtLLGx0ZlrT6Qw1LvZ3F-118">
          <mxGeometry y="210" width="30" height="30" as="geometry"/>
        </mxCell>
        <mxCell id="rtLLGx0ZlrT6Qw1LvZ3F-116" value="&lt;font style=&quot;font-size: 18px&quot;&gt;C&lt;/font&gt;" style="rounded=0;whiteSpace=wrap;html=1;fillColor=#fff2cc;strokeColor=#d6b656;" vertex="1" parent="rtLLGx0ZlrT6Qw1LvZ3F-118">
          <mxGeometry y="180" width="30" height="30" as="geometry"/>
        </mxCell>
        <mxCell id="rtLLGx0ZlrT6Qw1LvZ3F-117" style="edgeStyle=none;rounded=0;orthogonalLoop=1;jettySize=auto;html=1;exitX=0.5;exitY=1;exitDx=0;exitDy=0;startArrow=none;startFill=0;strokeColor=#000000;" edge="1" parent="rtLLGx0ZlrT6Qw1LvZ3F-118" source="rtLLGx0ZlrT6Qw1LvZ3F-115" target="rtLLGx0ZlrT6Qw1LvZ3F-115">
          <mxGeometry relative="1" as="geometry"/>
        </mxCell>
        <mxCell id="rtLLGx0ZlrT6Qw1LvZ3F-120" value="" style="endArrow=classic;html=1;strokeColor=#000000;" edge="1" parent="1">
          <mxGeometry width="50" height="50" relative="1" as="geometry">
            <mxPoint x="380" y="303" as="sourcePoint"/>
            <mxPoint x="420" y="303" as="targetPoint"/>
          </mxGeometry>
        </mxCell>
        <mxCell id="rtLLGx0ZlrT6Qw1LvZ3F-122" value="" style="endArrow=classic;html=1;strokeColor=#000000;" edge="1" parent="1">
          <mxGeometry width="50" height="50" relative="1" as="geometry">
            <mxPoint x="310" y="305" as="sourcePoint"/>
            <mxPoint x="350" y="305" as="targetPoint"/>
          </mxGeometry>
        </mxCell>
        <mxCell id="rtLLGx0ZlrT6Qw1LvZ3F-128" value="" style="endArrow=classic;html=1;strokeColor=#000000;entryX=0;entryY=1;entryDx=0;entryDy=0;" edge="1" parent="1" target="rtLLGx0ZlrT6Qw1LvZ3F-111">
          <mxGeometry width="50" height="50" relative="1" as="geometry">
            <mxPoint x="500" y="299.58" as="sourcePoint"/>
            <mxPoint x="600" y="299.58" as="targetPoint"/>
          </mxGeometry>
        </mxCell>
        <mxCell id="rtLLGx0ZlrT6Qw1LvZ3F-130" style="edgeStyle=orthogonalEdgeStyle;rounded=0;orthogonalLoop=1;jettySize=auto;html=1;exitX=1;exitY=0;exitDx=0;exitDy=0;startArrow=none;startFill=0;strokeColor=#000000;" edge="1" parent="1" source="rtLLGx0ZlrT6Qw1LvZ3F-110">
          <mxGeometry relative="1" as="geometry">
            <mxPoint x="680.3333333333335" y="300.33333333333337" as="targetPoint"/>
          </mxGeometry>
        </mxCell>
        <mxCell id="rtLLGx0ZlrT6Qw1LvZ3F-131" value="&lt;font style=&quot;font-size: 18px&quot;&gt;Heatmap&lt;/font&gt;" style="rounded=0;whiteSpace=wrap;html=1;" vertex="1" parent="1">
          <mxGeometry x="680" y="270" width="110" height="60" as="geometry"/>
        </mxCell>
        <mxCell id="rtLLGx0ZlrT6Qw1LvZ3F-134" value="" style="endArrow=classic;html=1;strokeColor=#000000;exitX=0.5;exitY=1;exitDx=0;exitDy=0;entryX=0.5;entryY=0;entryDx=0;entryDy=0;edgeStyle=orthogonalEdgeStyle;" edge="1" parent="1" source="rtLLGx0ZlrT6Qw1LvZ3F-131" target="rtLLGx0ZlrT6Qw1LvZ3F-135">
          <mxGeometry width="50" height="50" relative="1" as="geometry">
            <mxPoint x="60" y="590" as="sourcePoint"/>
            <mxPoint x="735" y="450" as="targetPoint"/>
          </mxGeometry>
        </mxCell>
        <mxCell id="rtLLGx0ZlrT6Qw1LvZ3F-153" style="edgeStyle=orthogonalEdgeStyle;rounded=0;orthogonalLoop=1;jettySize=auto;html=1;exitX=0.5;exitY=1;exitDx=0;exitDy=0;entryX=1;entryY=0.5;entryDx=0;entryDy=0;startArrow=none;startFill=0;strokeColor=#000000;" edge="1" parent="1" source="rtLLGx0ZlrT6Qw1LvZ3F-135" target="rtLLGx0ZlrT6Qw1LvZ3F-140">
          <mxGeometry relative="1" as="geometry"/>
        </mxCell>
        <mxCell id="rtLLGx0ZlrT6Qw1LvZ3F-135" value="&lt;font style=&quot;font-size: 18px&quot;&gt;Time&lt;/font&gt;" style="rounded=0;whiteSpace=wrap;html=1;fillColor=#ffff88;strokeColor=#36393d;" vertex="1" parent="1">
          <mxGeometry x="650" y="460" width="80" height="60" as="geometry"/>
        </mxCell>
        <mxCell id="rtLLGx0ZlrT6Qw1LvZ3F-136" value="&lt;font style=&quot;font-size: 18px&quot;&gt;Channels&lt;/font&gt;" style="rounded=0;whiteSpace=wrap;html=1;fillColor=#ffcccc;strokeColor=#36393d;" vertex="1" parent="1">
          <mxGeometry x="730" y="460" width="80" height="60" as="geometry"/>
        </mxCell>
        <mxCell id="rtLLGx0ZlrT6Qw1LvZ3F-137" value="" style="endArrow=classic;html=1;strokeColor=#000000;exitX=0.5;exitY=1;exitDx=0;exitDy=0;entryX=0.5;entryY=0;entryDx=0;entryDy=0;edgeStyle=orthogonalEdgeStyle;" edge="1" parent="1" source="rtLLGx0ZlrT6Qw1LvZ3F-131" target="rtLLGx0ZlrT6Qw1LvZ3F-136">
          <mxGeometry width="50" height="50" relative="1" as="geometry">
            <mxPoint x="470" y="610" as="sourcePoint"/>
            <mxPoint x="520" y="560" as="targetPoint"/>
          </mxGeometry>
        </mxCell>
        <mxCell id="rtLLGx0ZlrT6Qw1LvZ3F-140" value="&lt;font style=&quot;font-size: 18px&quot;&gt;SEEG Features&lt;/font&gt;" style="rounded=0;whiteSpace=wrap;html=1;" vertex="1" parent="1">
          <mxGeometry x="330" y="460" width="155" height="60" as="geometry"/>
        </mxCell>
        <mxCell id="rtLLGx0ZlrT6Qw1LvZ3F-155" value="" style="endArrow=none;html=1;strokeColor=#000000;entryX=0.5;entryY=1;entryDx=0;entryDy=0;edgeStyle=orthogonalEdgeStyle;" edge="1" parent="1" target="rtLLGx0ZlrT6Qw1LvZ3F-136">
          <mxGeometry width="50" height="50" relative="1" as="geometry">
            <mxPoint x="570" y="540" as="sourcePoint"/>
            <mxPoint x="590" y="640" as="targetPoint"/>
          </mxGeometry>
        </mxCell>
        <mxCell id="rtLLGx0ZlrT6Qw1LvZ3F-156" value="&lt;font style=&quot;font-size: 18px&quot;&gt;Feature Map&lt;/font&gt;" style="rounded=0;whiteSpace=wrap;html=1;fillColor=#FFFFFF;gradientColor=none;strokeColor=none;" vertex="1" parent="1">
          <mxGeometry x="395" y="220" width="120" height="30" as="geometry"/>
        </mxCell>
      </root>
    </mxGraphModel>
  </diagram>
</mxfile>
